<svg width="378" height="91" viewBox="0 0 378 91" fill="none" xmlns="http://www.w3.org/2000/svg">
<path d="M218.2 90.9C225.4 90.9 231.3 87.5 235.5 81.2L236.3 89.6H250.5V0H235.2V32.4C231.4 26.6 225.6 23.5 218.9 23.5C204.1 23.5 193.7 36 193.7 57.7C193.7 79 203.8 90.9 218.2 90.9ZM312.6 85.3V72.8C307.8 76 299.8 78.9 292.3 78.9C281.1 78.9 276.8 73.6 276.2 62.8H313.2V54.6C313.2 32 303.3 23.5 287.9 23.5C269.2 23.5 260.3 37.8 260.3 57.4C260.3 80 271.4 90.9 291 90.9C300.8 90.9 308 88.4 312.6 85.3ZM147.3 43.1C150.2 39.6 154.6 36.7 160.2 36.7C165.6 36.7 168 39 168 43.9V89.7H183.3V42.3C183.3 29.4 178.2 23.7 165.6 23.7C156.5 23.7 151 27.1 147.9 30.1H147.1L146.7 24.7H131.7V89.6H147L147.3 43.1ZM119.4 45.4C119.4 29.7 111.4 23.7 95.1 23.7C85 23.7 76.9 28 72.3 31.3V44.6C77.2 40.6 84.7 36 93.3 36C100.6 36 104 38.6 104 45.6V49.7H101.6C78.1 49.7 67.7 57.3 67.7 70.9C67.7 83.4 75.7 90.6 87.6 90.6C96.6 90.6 100.5 87.6 103.5 84.5H104.1C104.2 86.2 104.7 88.3 105.2 89.6H120.2C119.7 84.3 119.4 79 119.4 73.7V45.4ZM359.7 89.7H377L355.8 56.3L374.1 24.9H358.8L347.7 44.5L335.3 24.9H317.9L337.5 56L317.1 89.8H332.7L345.7 67.9L359.7 89.7ZM222.8 35.6C231.1 35.6 235.2 42.2 235.2 57.1C235.2 72.2 230.8 78.8 222.2 78.8C213.8 78.8 209.7 72.4 209.7 57.6C209.6 42.3 214 35.6 222.8 35.6ZM287.7 35.6C295.3 35.6 297.6 41.9 297.6 50V51.3H276.2C276.5 41 280.3 35.6 287.7 35.6ZM104.1 74.2C102.2 77.1 98.5 79.3 93.1 79.3C86.7 79.3 83.4 75.6 83.4 69.9C83.4 62.4 88.7 59.8 101.8 59.8H104L104.1 74.2Z" fill="black"/>
<path d="M45 74.4V89.6H29.4V64L0 0H16.3L39.2 50C43.6 59.6 45 62.9 45 74.4ZM74.3 0L55.2 43.3H39.3L58.5 0H74.3Z" fill="#FC3F1D"/>
</svg>
